<mxfile host="app.diagrams.net" agent="Mozilla/5.0 (Macintosh; Intel Mac OS X 10_15_7) AppleWebKit/537.36 (KHTML, like Gecko) Chrome/135.0.0.0 Safari/537.36" version="26.0.4">
  <diagram name="第 1 页" id="YDM7uOtpjnslLfs8nkTm">
    <mxGraphModel dx="545" dy="346" grid="1" gridSize="10" guides="1" tooltips="1" connect="1" arrows="1" fold="1" page="1" pageScale="1" pageWidth="827" pageHeight="1169" math="0" shadow="0">
      <root>
        <mxCell id="0" />
        <mxCell id="1" parent="0" />
        <mxCell id="uFpAkE_iiJmcPfHw6AWJ-26" style="edgeStyle=orthogonalEdgeStyle;rounded=0;orthogonalLoop=1;jettySize=auto;html=1;exitX=0.5;exitY=1;exitDx=0;exitDy=0;entryX=0.478;entryY=-0.031;entryDx=0;entryDy=0;strokeColor=#36393d;dashed=1;fillColor=#ffcc99;endArrow=classicThin;endFill=1;entryPerimeter=0;" edge="1" parent="1" target="uFpAkE_iiJmcPfHw6AWJ-7">
          <mxGeometry relative="1" as="geometry">
            <mxPoint x="154.74" y="220" as="sourcePoint" />
            <mxPoint x="154.74" y="260" as="targetPoint" />
          </mxGeometry>
        </mxCell>
        <mxCell id="uFpAkE_iiJmcPfHw6AWJ-1" value="" style="rounded=0;whiteSpace=wrap;html=1;fillColor=#dae8fc;strokeColor=#6c8ebf;" vertex="1" parent="1">
          <mxGeometry x="150" y="140" width="10" height="90" as="geometry" />
        </mxCell>
        <mxCell id="uFpAkE_iiJmcPfHw6AWJ-2" value="" style="rounded=0;whiteSpace=wrap;html=1;fillColor=#dae8fc;strokeColor=#6c8ebf;" vertex="1" parent="1">
          <mxGeometry x="190" y="160" width="10" height="50" as="geometry" />
        </mxCell>
        <mxCell id="uFpAkE_iiJmcPfHw6AWJ-4" value="" style="rounded=0;whiteSpace=wrap;html=1;fillColor=#dae8fc;strokeColor=#6c8ebf;" vertex="1" parent="1">
          <mxGeometry x="170" y="150" width="10" height="70" as="geometry" />
        </mxCell>
        <mxCell id="uFpAkE_iiJmcPfHw6AWJ-33" style="edgeStyle=orthogonalEdgeStyle;rounded=0;orthogonalLoop=1;jettySize=auto;html=1;exitX=1;exitY=0.5;exitDx=0;exitDy=0;entryX=0.5;entryY=0;entryDx=0;entryDy=0;dashed=1;endArrow=classicThin;endFill=1;" edge="1" parent="1" source="uFpAkE_iiJmcPfHw6AWJ-5" target="uFpAkE_iiJmcPfHw6AWJ-11">
          <mxGeometry relative="1" as="geometry">
            <Array as="points">
              <mxPoint x="235" y="185" />
            </Array>
          </mxGeometry>
        </mxCell>
        <mxCell id="uFpAkE_iiJmcPfHw6AWJ-5" value="" style="rounded=0;whiteSpace=wrap;html=1;fillColor=#dae8fc;strokeColor=#6c8ebf;" vertex="1" parent="1">
          <mxGeometry x="210" y="170" width="10" height="30" as="geometry" />
        </mxCell>
        <mxCell id="uFpAkE_iiJmcPfHw6AWJ-7" value="" style="rounded=0;whiteSpace=wrap;html=1;fillColor=#d5e8d4;strokeColor=#82b366;" vertex="1" parent="1">
          <mxGeometry x="150" y="280" width="10" height="90" as="geometry" />
        </mxCell>
        <mxCell id="uFpAkE_iiJmcPfHw6AWJ-8" value="" style="rounded=0;whiteSpace=wrap;html=1;fillColor=#d5e8d4;strokeColor=#82b366;" vertex="1" parent="1">
          <mxGeometry x="190" y="300" width="10" height="50" as="geometry" />
        </mxCell>
        <mxCell id="uFpAkE_iiJmcPfHw6AWJ-9" value="" style="rounded=0;whiteSpace=wrap;html=1;fillColor=#d5e8d4;strokeColor=#82b366;" vertex="1" parent="1">
          <mxGeometry x="170" y="290" width="10" height="70" as="geometry" />
        </mxCell>
        <mxCell id="uFpAkE_iiJmcPfHw6AWJ-10" value="" style="rounded=0;whiteSpace=wrap;html=1;fillColor=#d5e8d4;strokeColor=#82b366;" vertex="1" parent="1">
          <mxGeometry x="210" y="310" width="10" height="30" as="geometry" />
        </mxCell>
        <mxCell id="uFpAkE_iiJmcPfHw6AWJ-11" value="" style="rounded=0;whiteSpace=wrap;html=1;fillColor=#d5e8d4;strokeColor=#82b366;" vertex="1" parent="1">
          <mxGeometry x="230" y="320" width="10" height="10" as="geometry" />
        </mxCell>
        <mxCell id="uFpAkE_iiJmcPfHw6AWJ-12" value="" style="rounded=0;whiteSpace=wrap;html=1;fillColor=#d5e8d4;strokeColor=#82b366;rotation=-180;" vertex="1" parent="1">
          <mxGeometry x="310" y="280" width="10" height="90" as="geometry" />
        </mxCell>
        <mxCell id="uFpAkE_iiJmcPfHw6AWJ-13" value="" style="rounded=0;whiteSpace=wrap;html=1;fillColor=#d5e8d4;strokeColor=#82b366;" vertex="1" parent="1">
          <mxGeometry x="270" y="300" width="10" height="50" as="geometry" />
        </mxCell>
        <mxCell id="uFpAkE_iiJmcPfHw6AWJ-14" value="" style="rounded=0;whiteSpace=wrap;html=1;fillColor=#d5e8d4;strokeColor=#82b366;" vertex="1" parent="1">
          <mxGeometry x="290" y="290" width="10" height="70" as="geometry" />
        </mxCell>
        <mxCell id="uFpAkE_iiJmcPfHw6AWJ-15" value="" style="rounded=0;whiteSpace=wrap;html=1;fillColor=#d5e8d4;strokeColor=#82b366;" vertex="1" parent="1">
          <mxGeometry x="250" y="310" width="10" height="30" as="geometry" />
        </mxCell>
        <mxCell id="uFpAkE_iiJmcPfHw6AWJ-29" style="edgeStyle=orthogonalEdgeStyle;rounded=0;orthogonalLoop=1;jettySize=auto;html=1;exitX=0.5;exitY=1;exitDx=0;exitDy=0;entryX=0.5;entryY=0;entryDx=0;entryDy=0;strokeColor=#36393d;dashed=1;fillColor=#ffcc99;endArrow=classicThin;endFill=1;" edge="1" parent="1" source="uFpAkE_iiJmcPfHw6AWJ-4" target="uFpAkE_iiJmcPfHw6AWJ-9">
          <mxGeometry relative="1" as="geometry">
            <mxPoint x="174.66" y="230" as="sourcePoint" />
            <mxPoint x="174.66" y="270" as="targetPoint" />
          </mxGeometry>
        </mxCell>
        <mxCell id="uFpAkE_iiJmcPfHw6AWJ-30" style="edgeStyle=orthogonalEdgeStyle;rounded=0;orthogonalLoop=1;jettySize=auto;html=1;entryX=0.5;entryY=0;entryDx=0;entryDy=0;strokeColor=#36393d;dashed=1;fillColor=#ffcc99;endArrow=classicThin;endFill=1;exitX=0.5;exitY=1;exitDx=0;exitDy=0;" edge="1" parent="1" source="uFpAkE_iiJmcPfHw6AWJ-2" target="uFpAkE_iiJmcPfHw6AWJ-8">
          <mxGeometry relative="1" as="geometry">
            <mxPoint x="195" y="220" as="sourcePoint" />
            <mxPoint x="194.91" y="280" as="targetPoint" />
          </mxGeometry>
        </mxCell>
        <mxCell id="uFpAkE_iiJmcPfHw6AWJ-31" style="edgeStyle=orthogonalEdgeStyle;rounded=0;orthogonalLoop=1;jettySize=auto;html=1;exitX=0.5;exitY=1;exitDx=0;exitDy=0;entryX=0.5;entryY=0;entryDx=0;entryDy=0;strokeColor=#36393d;dashed=1;fillColor=#ffcc99;endArrow=classicThin;endFill=1;" edge="1" parent="1" source="uFpAkE_iiJmcPfHw6AWJ-5" target="uFpAkE_iiJmcPfHw6AWJ-10">
          <mxGeometry relative="1" as="geometry">
            <mxPoint x="214.57" y="210" as="sourcePoint" />
            <mxPoint x="214.91" y="270" as="targetPoint" />
          </mxGeometry>
        </mxCell>
        <mxCell id="uFpAkE_iiJmcPfHw6AWJ-34" value="" style="rounded=1;whiteSpace=wrap;html=1;fillColor=#fff2cc;strokeColor=#d6b656;" vertex="1" parent="1">
          <mxGeometry x="150" y="250" width="10" height="10" as="geometry" />
        </mxCell>
        <mxCell id="uFpAkE_iiJmcPfHw6AWJ-36" value="" style="rounded=1;whiteSpace=wrap;html=1;fillColor=#fff2cc;strokeColor=#d6b656;" vertex="1" parent="1">
          <mxGeometry x="170" y="250" width="10" height="10" as="geometry" />
        </mxCell>
        <mxCell id="uFpAkE_iiJmcPfHw6AWJ-37" value="" style="rounded=1;whiteSpace=wrap;html=1;fillColor=#fff2cc;strokeColor=#d6b656;" vertex="1" parent="1">
          <mxGeometry x="190" y="250" width="10" height="10" as="geometry" />
        </mxCell>
        <mxCell id="uFpAkE_iiJmcPfHw6AWJ-38" value="" style="rounded=1;whiteSpace=wrap;html=1;fillColor=#fff2cc;strokeColor=#d6b656;" vertex="1" parent="1">
          <mxGeometry x="210" y="250" width="10" height="10" as="geometry" />
        </mxCell>
        <mxCell id="uFpAkE_iiJmcPfHw6AWJ-39" value="" style="rounded=1;whiteSpace=wrap;html=1;fillColor=#fff2cc;strokeColor=#d6b656;" vertex="1" parent="1">
          <mxGeometry x="230" y="250" width="10" height="10" as="geometry" />
        </mxCell>
        <mxCell id="uFpAkE_iiJmcPfHw6AWJ-40" value="" style="rounded=1;whiteSpace=wrap;html=1;fillColor=#fff2cc;strokeColor=#d6b656;" vertex="1" parent="1">
          <mxGeometry x="400" y="150" width="160" height="215" as="geometry" />
        </mxCell>
        <mxCell id="uFpAkE_iiJmcPfHw6AWJ-41" value="&lt;div style=&quot;&quot;&gt;&lt;b style=&quot;background-color: transparent; color: light-dark(rgb(0, 0, 0), rgb(255, 255, 255));&quot;&gt;&lt;font style=&quot;font-size: 9px;&quot;&gt;Spacial&lt;/font&gt;&lt;/b&gt;&lt;/div&gt;&lt;div style=&quot;&quot;&gt;&lt;font style=&quot;font-size: 9px;&quot;&gt;&lt;b style=&quot;&quot;&gt;Attention&lt;/b&gt;&lt;/font&gt;&lt;/div&gt;" style="text;html=1;align=center;verticalAlign=middle;resizable=0;points=[];autosize=1;strokeColor=none;fillColor=none;strokeWidth=0;" vertex="1" parent="1">
          <mxGeometry x="399.25" y="244.67999999999998" width="60" height="40" as="geometry" />
        </mxCell>
        <mxCell id="uFpAkE_iiJmcPfHw6AWJ-76" style="edgeStyle=orthogonalEdgeStyle;rounded=0;orthogonalLoop=1;jettySize=auto;html=1;exitX=0;exitY=0.5;exitDx=0;exitDy=0;entryX=1;entryY=0.5;entryDx=0;entryDy=0;curved=0;dashed=1;dashPattern=1 1;endArrow=classicThin;endFill=1;endSize=2;" edge="1" parent="1" source="uFpAkE_iiJmcPfHw6AWJ-44" target="uFpAkE_iiJmcPfHw6AWJ-47">
          <mxGeometry relative="1" as="geometry">
            <mxPoint x="474.5" y="175.25" as="sourcePoint" />
            <mxPoint x="444" y="194.75" as="targetPoint" />
            <Array as="points">
              <mxPoint x="475" y="180" />
              <mxPoint x="444" y="180" />
            </Array>
          </mxGeometry>
        </mxCell>
        <mxCell id="uFpAkE_iiJmcPfHw6AWJ-77" style="edgeStyle=orthogonalEdgeStyle;rounded=0;orthogonalLoop=1;jettySize=auto;html=1;exitX=0;exitY=0.5;exitDx=0;exitDy=0;entryX=1;entryY=0.5;entryDx=0;entryDy=0;endArrow=classicThin;endFill=1;endSize=1;dashed=1;dashPattern=1 1;" edge="1" parent="1" source="uFpAkE_iiJmcPfHw6AWJ-44" target="uFpAkE_iiJmcPfHw6AWJ-48">
          <mxGeometry relative="1" as="geometry">
            <Array as="points">
              <mxPoint x="475" y="180" />
              <mxPoint x="505" y="180" />
            </Array>
          </mxGeometry>
        </mxCell>
        <mxCell id="uFpAkE_iiJmcPfHw6AWJ-44" value="&lt;div style=&quot;&quot;&gt;&lt;br&gt;&lt;/div&gt;" style="rounded=0;whiteSpace=wrap;html=1;direction=west;fillColor=#b0e3e6;strokeColor=#0e8088;rotation=90;" vertex="1" parent="1">
          <mxGeometry x="469.75" y="140" width="10" height="50" as="geometry" />
        </mxCell>
        <mxCell id="uFpAkE_iiJmcPfHw6AWJ-46" value="&lt;span style=&quot;font-family: Helvetica; font-style: normal; font-variant-ligatures: normal; font-variant-caps: normal; font-weight: 400; letter-spacing: normal; orphans: 2; text-align: center; text-indent: 0px; text-transform: none; widows: 2; word-spacing: 0px; -webkit-text-stroke-width: 0px; white-space: normal; text-decoration-thickness: initial; text-decoration-style: initial; text-decoration-color: initial; float: none; display: inline !important;&quot;&gt;&lt;font style=&quot;font-size: 6px; line-height: 80%;&quot;&gt;Input Feature&lt;/font&gt;&lt;/span&gt;" style="text;html=1;align=center;verticalAlign=bottom;rounded=0;horizontal=1;rotation=0;fontColor=default;labelBackgroundColor=none;whiteSpace=wrap;" vertex="1" parent="1">
          <mxGeometry x="447.38" y="158.29" width="55" height="13.43" as="geometry" />
        </mxCell>
        <mxCell id="uFpAkE_iiJmcPfHw6AWJ-47" value="&lt;div style=&quot;&quot;&gt;&lt;br&gt;&lt;/div&gt;" style="rounded=0;whiteSpace=wrap;html=1;direction=west;fillColor=#b0e3e6;strokeColor=#0e8088;rotation=90;" vertex="1" parent="1">
          <mxGeometry x="433.75" y="185" width="21" height="30" as="geometry" />
        </mxCell>
        <mxCell id="uFpAkE_iiJmcPfHw6AWJ-48" value="&lt;div style=&quot;&quot;&gt;&lt;br&gt;&lt;/div&gt;" style="rounded=0;whiteSpace=wrap;html=1;direction=west;fillColor=#b0e3e6;strokeColor=#0e8088;rotation=90;" vertex="1" parent="1">
          <mxGeometry x="494.75" y="185" width="21" height="30" as="geometry" />
        </mxCell>
        <mxCell id="uFpAkE_iiJmcPfHw6AWJ-49" value="&lt;div&gt;Max over&lt;/div&gt;&lt;div&gt;&lt;div&gt;channels&lt;/div&gt;&lt;/div&gt;" style="text;html=1;align=center;verticalAlign=middle;whiteSpace=wrap;rounded=0;fontSize=6;rotation=0;" vertex="1" parent="1">
          <mxGeometry x="429.25" y="190" width="30" height="20" as="geometry" />
        </mxCell>
        <mxCell id="uFpAkE_iiJmcPfHw6AWJ-50" value="&lt;div&gt;Mean over&lt;/div&gt;&lt;div&gt;&lt;div&gt;channels&lt;/div&gt;&lt;/div&gt;" style="text;html=1;align=center;verticalAlign=middle;whiteSpace=wrap;rounded=0;fontSize=6;rotation=0;" vertex="1" parent="1">
          <mxGeometry x="485.32" y="190" width="40" height="20" as="geometry" />
        </mxCell>
        <mxCell id="uFpAkE_iiJmcPfHw6AWJ-54" value="&lt;div style=&quot;&quot;&gt;&lt;br&gt;&lt;/div&gt;" style="rounded=0;whiteSpace=wrap;html=1;direction=west;fillColor=#b0e3e6;strokeColor=#0e8088;rotation=90;" vertex="1" parent="1">
          <mxGeometry x="470.26" y="220" width="10.5" height="30" as="geometry" />
        </mxCell>
        <mxCell id="uFpAkE_iiJmcPfHw6AWJ-55" value="&lt;div style=&quot;&quot;&gt;&lt;br&gt;&lt;/div&gt;" style="rounded=0;whiteSpace=wrap;html=1;direction=west;fillColor=#b0e3e6;strokeColor=#0e8088;rotation=90;" vertex="1" parent="1">
          <mxGeometry x="470.51" y="240" width="10" height="30" as="geometry" />
        </mxCell>
        <mxCell id="uFpAkE_iiJmcPfHw6AWJ-56" value="&lt;div style=&quot;&quot;&gt;&lt;br&gt;&lt;/div&gt;" style="rounded=0;whiteSpace=wrap;html=1;direction=west;fillColor=#b0e3e6;strokeColor=#0e8088;rotation=90;" vertex="1" parent="1">
          <mxGeometry x="469.88" y="260" width="10" height="30" as="geometry" />
        </mxCell>
        <mxCell id="uFpAkE_iiJmcPfHw6AWJ-58" value="&lt;div style=&quot;&quot;&gt;&lt;br&gt;&lt;/div&gt;" style="rounded=0;whiteSpace=wrap;html=1;direction=west;fillColor=#b0e3e6;strokeColor=#0e8088;rotation=90;" vertex="1" parent="1">
          <mxGeometry x="467.19" y="284.68" width="18.13" height="50" as="geometry" />
        </mxCell>
        <mxCell id="uFpAkE_iiJmcPfHw6AWJ-59" value="&lt;div style=&quot;&quot;&gt;&lt;br&gt;&lt;/div&gt;" style="rounded=0;whiteSpace=wrap;html=1;direction=west;fillColor=#b0e3e6;strokeColor=#0e8088;rotation=90;" vertex="1" parent="1">
          <mxGeometry x="471.25" y="330" width="10" height="54.14" as="geometry" />
        </mxCell>
        <mxCell id="uFpAkE_iiJmcPfHw6AWJ-60" value="&lt;div&gt;Conv2d&lt;/div&gt;" style="text;html=1;align=center;verticalAlign=middle;whiteSpace=wrap;rounded=0;fontSize=6;rotation=0;" vertex="1" parent="1">
          <mxGeometry x="459.88" y="250" width="30" height="10" as="geometry" />
        </mxCell>
        <mxCell id="uFpAkE_iiJmcPfHw6AWJ-61" value="&lt;div&gt;Concat&lt;/div&gt;" style="text;html=1;align=center;verticalAlign=middle;whiteSpace=wrap;rounded=0;fontSize=6;rotation=0;" vertex="1" parent="1">
          <mxGeometry x="460.51" y="230" width="30" height="10" as="geometry" />
        </mxCell>
        <mxCell id="uFpAkE_iiJmcPfHw6AWJ-62" value="&lt;div&gt;Sigmoid&lt;/div&gt;" style="text;html=1;align=center;verticalAlign=middle;whiteSpace=wrap;rounded=0;fontSize=6;rotation=0;" vertex="1" parent="1">
          <mxGeometry x="459.88" y="270" width="30" height="10" as="geometry" />
        </mxCell>
        <mxCell id="uFpAkE_iiJmcPfHw6AWJ-64" value="&lt;div style=&quot;line-height: 50%;&quot;&gt;&lt;font style=&quot;font-size: 6px; line-height: 50%;&quot;&gt;Element-wise&lt;/font&gt;&lt;/div&gt;&lt;div style=&quot;line-height: 50%;&quot;&gt;&lt;div&gt;&lt;font style=&quot;font-size: 6px; line-height: 50%;&quot;&gt;Multiplication&lt;/font&gt;&lt;/div&gt;&lt;/div&gt;" style="text;html=1;align=center;verticalAlign=middle;whiteSpace=wrap;rounded=0;spacing=0;rotation=0;" vertex="1" parent="1">
          <mxGeometry x="452.51" y="303.13" width="48.75" height="6.87" as="geometry" />
        </mxCell>
        <mxCell id="uFpAkE_iiJmcPfHw6AWJ-65" value="&lt;span style=&quot;font-family: Helvetica; font-style: normal; font-variant-ligatures: normal; font-variant-caps: normal; font-weight: 400; letter-spacing: normal; orphans: 2; text-align: center; text-indent: 0px; text-transform: none; widows: 2; word-spacing: 0px; -webkit-text-stroke-width: 0px; white-space: normal; text-decoration-thickness: initial; text-decoration-style: initial; text-decoration-color: initial; float: none; display: inline !important;&quot;&gt;&lt;font style=&quot;font-size: 6px; line-height: 80%;&quot;&gt;Output Feature&lt;/font&gt;&lt;/span&gt;" style="text;html=1;align=center;verticalAlign=bottom;rounded=0;horizontal=1;rotation=0;fontColor=default;labelBackgroundColor=none;whiteSpace=wrap;" vertex="1" parent="1">
          <mxGeometry x="450" y="350.35999999999996" width="52.5" height="13.43" as="geometry" />
        </mxCell>
        <mxCell id="uFpAkE_iiJmcPfHw6AWJ-72" value="&lt;div style=&quot;&quot;&gt;&lt;br&gt;&lt;/div&gt;" style="rounded=0;whiteSpace=wrap;html=1;direction=west;fillColor=#b0e3e6;strokeColor=#0e8088;rotation=90;" vertex="1" parent="1">
          <mxGeometry x="522.51" y="260" width="10" height="50" as="geometry" />
        </mxCell>
        <mxCell id="uFpAkE_iiJmcPfHw6AWJ-73" value="&lt;span style=&quot;font-family: Helvetica; font-style: normal; font-variant-ligatures: normal; font-variant-caps: normal; font-weight: 400; letter-spacing: normal; orphans: 2; text-align: center; text-indent: 0px; text-transform: none; widows: 2; word-spacing: 0px; -webkit-text-stroke-width: 0px; white-space: normal; text-decoration-thickness: initial; text-decoration-style: initial; text-decoration-color: initial; float: none; display: inline !important;&quot;&gt;&lt;font style=&quot;font-size: 6px; line-height: 80%;&quot;&gt;Input Feature&lt;/font&gt;&lt;/span&gt;" style="text;html=1;align=center;verticalAlign=bottom;rounded=0;horizontal=1;rotation=0;fontColor=default;labelBackgroundColor=none;whiteSpace=wrap;" vertex="1" parent="1">
          <mxGeometry x="500.64" y="278.28999999999996" width="55" height="13.43" as="geometry" />
        </mxCell>
        <mxCell id="uFpAkE_iiJmcPfHw6AWJ-78" style="edgeStyle=orthogonalEdgeStyle;rounded=0;orthogonalLoop=1;jettySize=auto;html=1;exitX=0;exitY=0.5;exitDx=0;exitDy=0;endArrow=classicThin;endFill=1;endSize=1;dashed=1;dashPattern=1 1;entryX=1;entryY=0.5;entryDx=0;entryDy=0;" edge="1" parent="1" source="uFpAkE_iiJmcPfHw6AWJ-47" target="uFpAkE_iiJmcPfHw6AWJ-54">
          <mxGeometry relative="1" as="geometry">
            <mxPoint x="439.5" y="215" as="sourcePoint" />
            <mxPoint x="475" y="230" as="targetPoint" />
            <Array as="points">
              <mxPoint x="444" y="220" />
              <mxPoint x="475" y="220" />
            </Array>
          </mxGeometry>
        </mxCell>
        <mxCell id="uFpAkE_iiJmcPfHw6AWJ-80" style="edgeStyle=orthogonalEdgeStyle;rounded=0;orthogonalLoop=1;jettySize=auto;html=1;exitX=0;exitY=0.5;exitDx=0;exitDy=0;entryX=1;entryY=0.5;entryDx=0;entryDy=0;endArrow=classicThin;endFill=1;endSize=1;dashed=1;dashPattern=1 1;" edge="1" parent="1" source="uFpAkE_iiJmcPfHw6AWJ-48" target="uFpAkE_iiJmcPfHw6AWJ-54">
          <mxGeometry relative="1" as="geometry">
            <mxPoint x="499.62" y="211" as="sourcePoint" />
            <mxPoint x="530.62" y="230" as="targetPoint" />
            <Array as="points">
              <mxPoint x="505" y="220" />
              <mxPoint x="475" y="220" />
            </Array>
          </mxGeometry>
        </mxCell>
        <mxCell id="uFpAkE_iiJmcPfHw6AWJ-82" style="edgeStyle=orthogonalEdgeStyle;rounded=0;orthogonalLoop=1;jettySize=auto;html=1;exitX=0;exitY=0.5;exitDx=0;exitDy=0;entryX=1;entryY=0.5;entryDx=0;entryDy=0;endArrow=classicThin;endFill=1;endSize=1;dashed=1;dashPattern=1 1;" edge="1" parent="1" source="uFpAkE_iiJmcPfHw6AWJ-54" target="uFpAkE_iiJmcPfHw6AWJ-55">
          <mxGeometry relative="1" as="geometry">
            <mxPoint x="524.75" y="241" as="sourcePoint" />
            <mxPoint x="494.75" y="260" as="targetPoint" />
            <Array as="points">
              <mxPoint x="475" y="240" />
            </Array>
          </mxGeometry>
        </mxCell>
        <mxCell id="uFpAkE_iiJmcPfHw6AWJ-83" style="edgeStyle=orthogonalEdgeStyle;rounded=0;orthogonalLoop=1;jettySize=auto;html=1;exitX=0;exitY=0.5;exitDx=0;exitDy=0;entryX=1;entryY=0.5;entryDx=0;entryDy=0;endArrow=classicThin;endFill=1;endSize=1;dashed=1;dashPattern=1 1;" edge="1" parent="1">
          <mxGeometry relative="1" as="geometry">
            <mxPoint x="475.51" y="260" as="sourcePoint" />
            <mxPoint x="475.51" y="270" as="targetPoint" />
            <Array as="points">
              <mxPoint x="474.51" y="260" />
            </Array>
          </mxGeometry>
        </mxCell>
        <mxCell id="uFpAkE_iiJmcPfHw6AWJ-88" style="edgeStyle=orthogonalEdgeStyle;rounded=0;orthogonalLoop=1;jettySize=auto;html=1;exitX=0.5;exitY=1;exitDx=0;exitDy=0;entryX=0.98;entryY=0.474;entryDx=0;entryDy=0;entryPerimeter=0;dashed=1;dashPattern=1 1;endSize=1;endArrow=classicThin;endFill=1;" edge="1" parent="1">
          <mxGeometry relative="1" as="geometry">
            <mxPoint x="476.18" y="280" as="sourcePoint" />
            <mxPoint x="476.25500000000005" y="300.9776" as="targetPoint" />
          </mxGeometry>
        </mxCell>
        <mxCell id="uFpAkE_iiJmcPfHw6AWJ-90" style="edgeStyle=orthogonalEdgeStyle;rounded=0;orthogonalLoop=1;jettySize=auto;html=1;exitX=0.525;exitY=0.895;exitDx=0;exitDy=0;entryX=0.5;entryY=1;entryDx=0;entryDy=0;endArrow=classicThin;endFill=1;endSize=1;dashed=1;dashPattern=1 1;exitPerimeter=0;" edge="1" parent="1">
          <mxGeometry relative="1" as="geometry">
            <mxPoint x="529.7450000000001" y="289.99985" as="sourcePoint" />
            <mxPoint x="501.485" y="309.37" as="targetPoint" />
            <Array as="points">
              <mxPoint x="530.23" y="292.69" />
              <mxPoint x="530.23" y="292.69" />
              <mxPoint x="530.23" y="309.69" />
            </Array>
          </mxGeometry>
        </mxCell>
        <mxCell id="uFpAkE_iiJmcPfHw6AWJ-91" style="edgeStyle=orthogonalEdgeStyle;rounded=0;orthogonalLoop=1;jettySize=auto;html=1;entryX=0.5;entryY=0;entryDx=0;entryDy=0;dashed=1;dashPattern=1 1;endSize=1;endArrow=classicThin;endFill=1;exitX=0;exitY=0.5;exitDx=0;exitDy=0;" edge="1" parent="1" source="uFpAkE_iiJmcPfHw6AWJ-58" target="uFpAkE_iiJmcPfHw6AWJ-65">
          <mxGeometry relative="1" as="geometry">
            <mxPoint x="480" y="330" as="sourcePoint" />
            <mxPoint x="448.83500000000004" y="349.9976" as="targetPoint" />
          </mxGeometry>
        </mxCell>
      </root>
    </mxGraphModel>
  </diagram>
</mxfile>
